<?xml version="1.0" encoding="utf-8"?>
<!-- Generator: Adobe Illustrator 19.1.0, SVG Export Plug-In . SVG Version: 6.00 Build 0)  -->
<svg version="1.1" id="Layer_1" xmlns="http://www.w3.org/2000/svg" xmlns:xlink="http://www.w3.org/1999/xlink" x="0px" y="0px"
	 viewBox="0 0 595.3 841.9" style="enable-background:new 0 0 595.3 841.9;" xml:space="preserve">
<style type="text/css">
	.st0{fill:#4F1A72;}
	.st1{fill:#074031;}
	.st2{fill:#2F6F59;}
	.st3{fill:#61C29C;}
	.st4{fill:#2D0044;}
	.st5{fill:#895F7F;}
	.st6{fill:#D394C1;}
	.st7{fill:#EACDA9;}
	.st8{fill:#BFA98C;}
	.st9{fill:#8C7C67;}
	.st10{fill:#6F6251;}
</style>
<g>
	<g>
		<g>
			<path d="M223.1,436.2l-3.9,9.5h-2l11.5-27.6h1.1l11.6,27.6h-2.2l-4-9.5H223.1z M229.1,421.2c-0.4,1.3-0.8,2.3-1.1,3.2l-4.2,10.2
				h10.8l-4.2-10.1C229.8,422.8,229.3,421.8,229.1,421.2z"/>
			<path d="M265.4,442.9c-1.9,2.2-4.7,3.3-8.5,3.3c-3.8,0-6.6-1.1-8.5-3.3c-1.9-2.2-2.8-5.2-2.8-9v-15.6h1.9v15.6
				c0,7,3.1,10.5,9.4,10.5c6.2,0,9.4-3.5,9.4-10.5v-15.6h1.9v15.6C268.2,437.7,267.3,440.7,265.4,442.9z"/>
			<path d="M276.7,445.7v-27.3c2.4-0.2,4.5-0.3,6.2-0.3c2.6,0,4.7,0.7,6.4,2c1.7,1.3,2.5,3.3,2.5,5.7c0,1.7-0.5,3.2-1.4,4.6
				c-1,1.4-2,2.6-3.3,3.4c3.4,4.5,5.4,7.1,6.2,8c1.6,1.7,3.4,2.6,5.2,2.8l0,1.3c-1.6,0-2.9-0.3-3.9-0.7c-1-0.4-2-1.2-2.9-2.2
				c-1-1-3.1-3.9-6.4-8.4c-2.3,0-4.5-0.1-6.7-0.2v11.3H276.7z M284.3,433.1c1.1,0,2.3-0.7,3.6-2.2c1.3-1.5,1.9-3.2,1.9-5.1
				c0-1.9-0.7-3.4-2-4.4c-1.3-1-3-1.5-5.2-1.5c-1.1,0-2.5,0.1-4,0.2v12.9C280.7,433,282.6,433.1,284.3,433.1z"/>
			<path d="M313.6,446.1c-3.9,0-7.2-1.4-9.9-4.1c-2.7-2.7-4-6.1-4-10.1c0-4,1.3-7.3,4-10c2.7-2.7,5.9-4.1,9.9-4.1
				c3.9,0,7.2,1.4,9.9,4.1c2.7,2.7,4,6.1,4,10c0,4-1.3,7.3-4,10.1C320.8,444.8,317.5,446.1,313.6,446.1z M313.6,419.6
				c-3.4,0-6.2,1.2-8.5,3.6c-2.2,2.4-3.4,5.3-3.4,8.8c0,3.5,1.1,6.4,3.4,8.8c2.2,2.4,5.1,3.6,8.5,3.6c3.4,0,6.2-1.2,8.4-3.6
				c2.2-2.4,3.3-5.3,3.3-8.8c0-3.5-1.1-6.4-3.3-8.8C319.8,420.8,317,419.6,313.6,419.6z"/>
			<path d="M332.3,445.7v-27.3c2.4-0.2,4.5-0.3,6.2-0.3c2.6,0,4.7,0.7,6.4,2c1.7,1.3,2.5,3.3,2.5,5.7c0,1.7-0.5,3.2-1.4,4.6
				c-1,1.4-2,2.6-3.3,3.4c3.4,4.5,5.4,7.1,6.2,8c1.6,1.7,3.4,2.6,5.2,2.8l0,1.3c-1.6,0-2.9-0.3-3.9-0.7c-1-0.4-2-1.2-2.9-2.2
				c-1-1-3.1-3.9-6.4-8.4c-2.3,0-4.5-0.1-6.7-0.2v11.3H332.3z M339.9,433.1c1.1,0,2.3-0.7,3.6-2.2c1.3-1.5,1.9-3.2,1.9-5.1
				c0-1.9-0.7-3.4-2-4.4c-1.3-1-3-1.5-5.2-1.5c-1.1,0-2.5,0.1-4,0.2v12.9C336.3,433,338.2,433.1,339.9,433.1z"/>
			<path d="M361.1,436.2l-3.9,9.5h-2l11.5-27.6h1.1l11.6,27.6h-2.2l-4-9.5H361.1z M367.2,421.2c-0.4,1.3-0.8,2.3-1.1,3.2l-4.2,10.2
				h10.8l-4.2-10.1C367.8,422.8,367.4,421.8,367.2,421.2z"/>
		</g>
		<g>
			<g>
				<path d="M219.9,452v2.3c0,0.1,0,0.1,0,0.1c0,0-0.1,0-0.1,0s-0.1,0-0.1,0c0,0,0-0.1,0-0.1v-0.5c-0.1,0.2-0.3,0.4-0.5,0.5
					c-0.2,0.1-0.5,0.2-0.7,0.2c-0.2,0-0.5,0-0.6-0.1c-0.2-0.1-0.4-0.2-0.5-0.4s-0.2-0.4-0.2-0.6c0-0.3,0.1-0.5,0.2-0.6
					c0.1-0.2,0.4-0.3,0.7-0.3c0.3-0.1,0.8-0.1,1.4-0.1h0.2V452c0-0.4-0.1-0.6-0.2-0.8c-0.1-0.2-0.4-0.2-0.7-0.2
					c-0.2,0-0.5,0-0.7,0.1c-0.2,0.1-0.3,0.1-0.5,0.2c0,0-0.1,0-0.1,0.1c-0.1,0-0.1,0.1-0.2,0.1c0,0-0.1,0-0.1,0c0,0,0-0.1,0-0.1
					c0-0.1,0.1-0.2,0.3-0.3c0.2-0.1,0.4-0.2,0.6-0.2c0.2-0.1,0.4-0.1,0.6-0.1C219.5,450.6,219.9,451.1,219.9,452z M219,454
					c0.2-0.1,0.3-0.3,0.4-0.5c0.1-0.2,0.2-0.4,0.2-0.7v-0.3h-0.1c-0.5,0-0.9,0-1.2,0.1c-0.3,0-0.5,0.1-0.6,0.2
					c-0.1,0.1-0.2,0.3-0.2,0.5c0,0.2,0.1,0.4,0.3,0.6s0.4,0.2,0.7,0.2C218.6,454.1,218.8,454.1,219,454z"/>
				<path d="M232.1,450.7c0,0,0,0.1,0,0.1v3.5c0,0.1-0.1,0.2-0.2,0.2c0,0-0.1,0-0.1,0c0,0,0-0.1,0-0.1v-0.6
					c-0.1,0.2-0.3,0.4-0.5,0.6c-0.2,0.1-0.5,0.2-0.8,0.2c-0.4,0-0.8-0.1-1-0.4c-0.2-0.2-0.3-0.6-0.3-1.1v-2.3c0-0.1,0-0.1,0-0.1
					c0,0,0.1,0,0.1,0c0.1,0,0.1,0,0.1,0c0,0,0,0.1,0,0.1v2.2c0,0.4,0.1,0.7,0.2,0.9c0.2,0.2,0.4,0.3,0.7,0.3c0.4,0,0.7-0.1,0.9-0.4
					c0.2-0.2,0.3-0.6,0.3-1v-2c0-0.1,0-0.1,0-0.1c0,0,0.1,0,0.1,0C232.1,450.6,232.1,450.6,232.1,450.7z"/>
				<path d="M243.2,450.6c0.1,0,0.1,0,0.1,0c0,0,0,0.1,0,0.1c0,0.1-0.1,0.1-0.2,0.2l-0.2,0c-0.4,0-0.7,0.2-0.8,0.4
					c-0.2,0.2-0.3,0.5-0.3,0.8v2.1c0,0.1,0,0.1,0,0.1c0,0-0.1,0-0.1,0c-0.1,0-0.1,0-0.1,0c0,0,0-0.1,0-0.1v-3.5
					c0-0.1,0.1-0.2,0.2-0.2c0,0,0.1,0,0.1,0c0,0,0,0.1,0,0.1v0.6c0.2-0.4,0.6-0.7,1.2-0.7L243.2,450.6L243.2,450.6z"/>
				<path d="M252.5,454.2c-0.3-0.2-0.4-0.4-0.6-0.7c-0.1-0.3-0.2-0.6-0.2-1c0-0.4,0.1-0.7,0.2-1c0.1-0.3,0.3-0.5,0.6-0.7
					c0.3-0.2,0.5-0.2,0.9-0.2s0.6,0.1,0.9,0.2c0.3,0.2,0.4,0.4,0.6,0.7c0.1,0.3,0.2,0.6,0.2,1c0,0.4-0.1,0.7-0.2,1
					c-0.1,0.3-0.3,0.5-0.6,0.7c-0.3,0.2-0.5,0.2-0.9,0.2S252.8,454.4,252.5,454.2z M254.4,453.7c0.2-0.3,0.3-0.7,0.3-1.2
					c0-0.5-0.1-0.9-0.3-1.2c-0.2-0.3-0.6-0.4-1-0.4s-0.7,0.1-1,0.4c-0.2,0.3-0.3,0.7-0.3,1.2c0,0.5,0.1,0.9,0.3,1.2
					c0.2,0.3,0.5,0.4,1,0.4C253.8,454.1,254.2,454,254.4,453.7z"/>
				<path d="M265.9,450.6c0.1,0,0.1,0,0.1,0c0,0,0,0.1,0,0.1c0,0.1-0.1,0.1-0.2,0.2l-0.2,0c-0.4,0-0.7,0.2-0.8,0.4
					c-0.2,0.2-0.3,0.5-0.3,0.8v2.1c0,0.1,0,0.1,0,0.1c0,0-0.1,0-0.1,0s-0.1,0-0.1,0c0,0,0-0.1,0-0.1v-3.5c0-0.1,0.1-0.2,0.2-0.2
					c0,0,0.1,0,0.1,0c0,0,0,0.1,0,0.1v0.6c0.2-0.4,0.6-0.7,1.2-0.7L265.9,450.6L265.9,450.6z"/>
				<path d="M277.4,452v2.3c0,0.1,0,0.1,0,0.1c0,0-0.1,0-0.1,0s-0.1,0-0.1,0c0,0,0-0.1,0-0.1v-0.5c-0.1,0.2-0.3,0.4-0.5,0.5
					c-0.2,0.1-0.5,0.2-0.7,0.2c-0.2,0-0.5,0-0.6-0.1c-0.2-0.1-0.4-0.2-0.5-0.4c-0.1-0.2-0.2-0.4-0.2-0.6c0-0.3,0.1-0.5,0.2-0.6
					c0.1-0.2,0.4-0.3,0.7-0.3c0.3-0.1,0.8-0.1,1.4-0.1h0.2V452c0-0.4-0.1-0.6-0.2-0.8c-0.1-0.2-0.4-0.2-0.7-0.2
					c-0.2,0-0.5,0-0.7,0.1c-0.2,0.1-0.3,0.1-0.5,0.2c0,0-0.1,0-0.1,0.1s-0.1,0.1-0.2,0.1c0,0-0.1,0-0.1,0c0,0,0-0.1,0-0.1
					c0-0.1,0.1-0.2,0.3-0.3c0.2-0.1,0.4-0.2,0.6-0.2c0.2-0.1,0.4-0.1,0.6-0.1C277,450.6,277.4,451.1,277.4,452z M276.5,454
					c0.2-0.1,0.3-0.3,0.4-0.5c0.1-0.2,0.2-0.4,0.2-0.7v-0.3h-0.1c-0.5,0-0.9,0-1.2,0.1c-0.3,0-0.5,0.1-0.6,0.2
					c-0.1,0.1-0.2,0.3-0.2,0.5c0,0.2,0.1,0.4,0.3,0.6s0.4,0.2,0.7,0.2C276.1,454.1,276.3,454.1,276.5,454z"/>
				<path d="M287.3,454.4c-0.2-0.1-0.4-0.1-0.5-0.2c-0.1-0.1-0.2-0.1-0.2-0.2c0,0-0.1-0.1-0.1-0.1c0,0,0-0.1,0-0.1c0,0,0.1,0,0.1,0
					c0,0,0.1,0,0.1,0c0,0,0.1,0,0.1,0.1c0.1,0.1,0.3,0.2,0.5,0.3c0.2,0.1,0.4,0.1,0.6,0.1c0.3,0,0.6-0.1,0.8-0.2
					c0.2-0.1,0.3-0.3,0.3-0.5c0-0.1,0-0.2-0.1-0.3c-0.1-0.1-0.2-0.2-0.3-0.2c-0.1-0.1-0.4-0.1-0.6-0.2c-0.5-0.1-0.8-0.2-1-0.4
					c-0.2-0.2-0.3-0.4-0.3-0.6c0-0.3,0.1-0.6,0.4-0.8c0.2-0.2,0.6-0.3,1-0.3c0.2,0,0.4,0,0.5,0.1c0.2,0.1,0.3,0.1,0.5,0.2
					c0.1,0.1,0.2,0.1,0.2,0.2c0,0.1,0.1,0.1,0.1,0.2c0,0,0,0.1,0,0.1c0,0-0.1,0-0.1,0c0,0-0.1,0-0.2-0.1c-0.1-0.1-0.3-0.2-0.4-0.3
					c-0.1-0.1-0.3-0.1-0.5-0.1c-0.3,0-0.5,0.1-0.7,0.2c-0.2,0.1-0.3,0.3-0.3,0.5c0,0.1,0,0.2,0.1,0.3c0.1,0.1,0.2,0.2,0.3,0.2
					c0.1,0.1,0.3,0.1,0.6,0.2c0.4,0.1,0.6,0.2,0.8,0.3c0.2,0.1,0.3,0.2,0.4,0.3c0.1,0.1,0.1,0.3,0.1,0.5c0,0.3-0.1,0.6-0.4,0.7
					c-0.3,0.2-0.6,0.3-1,0.3C287.7,454.5,287.5,454.4,287.3,454.4z"/>
				<path d="M300.1,454.3c0,0.1-0.1,0.2-0.2,0.1l-0.2,0c-0.4,0-0.7-0.1-0.8-0.3c-0.2-0.2-0.3-0.5-0.3-1V451h-0.6c0,0-0.1,0-0.1,0
					c0,0,0-0.1,0-0.1c0,0,0-0.1,0-0.1c0,0,0.1,0,0.1,0h0.6v-1c0-0.1,0-0.1,0-0.1c0,0,0.1,0,0.1,0c0,0,0.1,0,0.1,0c0,0,0,0.1,0,0.1v1
					h1c0,0,0.1,0,0.1,0c0,0,0,0.1,0,0.1c0,0,0,0.1,0,0.1c0,0-0.1,0-0.1,0h-1v2.2c0,0.3,0.1,0.6,0.2,0.7c0.1,0.1,0.3,0.2,0.6,0.3
					l0.2,0C300,454.2,300.1,454.2,300.1,454.3z"/>
				<path d="M311.7,450.7c0,0,0,0.1,0,0.1v3.5c0,0.1-0.1,0.2-0.2,0.2c0,0-0.1,0-0.1,0c0,0,0-0.1,0-0.1v-0.6
					c-0.1,0.2-0.3,0.4-0.5,0.6c-0.2,0.1-0.5,0.2-0.8,0.2c-0.4,0-0.8-0.1-1-0.4c-0.2-0.2-0.3-0.6-0.3-1.1v-2.3c0-0.1,0-0.1,0-0.1
					c0,0,0.1,0,0.1,0s0.1,0,0.1,0c0,0,0,0.1,0,0.1v2.2c0,0.4,0.1,0.7,0.2,0.9c0.2,0.2,0.4,0.3,0.7,0.3c0.4,0,0.7-0.1,0.9-0.4
					c0.2-0.2,0.3-0.6,0.3-1v-2c0-0.1,0-0.1,0-0.1c0,0,0.1,0,0.1,0C311.6,450.6,311.7,450.6,311.7,450.7z"/>
				<path d="M324.1,449c0,0,0,0.1,0,0.1v5.1c0,0.1,0,0.1,0,0.1c0,0-0.1,0-0.1,0c-0.1,0-0.2-0.1-0.2-0.2v-0.6
					c-0.1,0.3-0.3,0.5-0.5,0.6c-0.2,0.1-0.5,0.2-0.8,0.2c-0.3,0-0.6-0.1-0.9-0.2c-0.3-0.2-0.4-0.4-0.6-0.7c-0.1-0.3-0.2-0.6-0.2-1
					c0-0.4,0.1-0.7,0.2-1c0.1-0.3,0.3-0.5,0.6-0.7c0.3-0.2,0.5-0.2,0.9-0.2c0.3,0,0.6,0.1,0.8,0.2c0.2,0.1,0.4,0.3,0.5,0.6v-2.3
					c0-0.1,0.1-0.2,0.2-0.2C324,449,324.1,449,324.1,449z M323.5,453.7c0.2-0.3,0.3-0.7,0.3-1.2c0-0.5-0.1-0.9-0.3-1.2
					c-0.2-0.3-0.5-0.4-1-0.4c-0.4,0-0.7,0.1-1,0.4c-0.2,0.3-0.3,0.7-0.3,1.2c0,0.5,0.1,0.9,0.3,1.2c0.2,0.3,0.6,0.4,1,0.4
					C322.9,454.1,323.2,454,323.5,453.7z"/>
				<path d="M333.5,449.6c-0.1-0.1-0.1-0.1-0.1-0.2c0-0.1,0-0.2,0.1-0.2c0.1-0.1,0.1-0.1,0.2-0.1c0.1,0,0.1,0,0.2,0.1
					c0.1,0.1,0.1,0.1,0.1,0.2c0,0.1,0,0.1-0.1,0.2c-0.1,0.1-0.1,0.1-0.2,0.1S333.5,449.7,333.5,449.6z M333.5,454.4c0,0,0-0.1,0-0.1
					v-3.5c0-0.1,0-0.1,0-0.1c0,0,0.1,0,0.1,0s0.1,0,0.1,0c0,0,0,0.1,0,0.1v3.5c0,0.1,0,0.1,0,0.1c0,0-0.1,0-0.1,0
					S333.6,454.4,333.5,454.4z"/>
				<path d="M343.7,454.2c-0.3-0.2-0.4-0.4-0.6-0.7c-0.1-0.3-0.2-0.6-0.2-1c0-0.4,0.1-0.7,0.2-1c0.1-0.3,0.3-0.5,0.6-0.7
					c0.3-0.2,0.5-0.2,0.9-0.2c0.3,0,0.6,0.1,0.9,0.2c0.3,0.2,0.4,0.4,0.6,0.7c0.1,0.3,0.2,0.6,0.2,1c0,0.4-0.1,0.7-0.2,1
					c-0.1,0.3-0.3,0.5-0.6,0.7c-0.3,0.2-0.5,0.2-0.9,0.2C344.3,454.5,344,454.4,343.7,454.2z M345.6,453.7c0.2-0.3,0.3-0.7,0.3-1.2
					c0-0.5-0.1-0.9-0.3-1.2c-0.2-0.3-0.6-0.4-1-0.4s-0.7,0.1-1,0.4c-0.2,0.3-0.3,0.7-0.3,1.2c0,0.5,0.1,0.9,0.3,1.2
					c0.2,0.3,0.5,0.4,1,0.4C345,454.1,345.3,454,345.6,453.7z"/>
				<path d="M355.1,454.4c-0.1-0.1-0.1-0.1-0.1-0.2c0-0.1,0-0.2,0.1-0.2c0.1-0.1,0.1-0.1,0.2-0.1c0.1,0,0.2,0,0.2,0.1
					c0.1,0.1,0.1,0.1,0.1,0.2c0,0.1,0,0.2-0.1,0.2c-0.1,0.1-0.1,0.1-0.2,0.1C355.3,454.4,355.2,454.4,355.1,454.4z"/>
				<path d="M365.3,454.2c-0.3-0.2-0.5-0.4-0.6-0.7c-0.1-0.3-0.2-0.6-0.2-1c0-0.4,0.1-0.7,0.2-1c0.1-0.3,0.3-0.5,0.6-0.7
					c0.3-0.2,0.6-0.2,0.9-0.2c0.2,0,0.4,0,0.6,0.1c0.2,0,0.3,0.1,0.5,0.2c0.1,0.1,0.2,0.1,0.2,0.2c0,0,0.1,0.1,0.1,0.2
					c0,0,0,0.1,0,0.1c0,0-0.1,0-0.1,0c0,0-0.1,0-0.1,0c0,0-0.1,0-0.1-0.1c-0.1-0.1-0.3-0.2-0.4-0.3c-0.1-0.1-0.3-0.1-0.5-0.1
					c-0.4,0-0.8,0.1-1,0.4c-0.2,0.3-0.4,0.7-0.4,1.2c0,0.5,0.1,0.9,0.4,1.2s0.6,0.4,1,0.4c0.2,0,0.4,0,0.5-0.1
					c0.2-0.1,0.3-0.2,0.4-0.3c0.1-0.1,0.2-0.1,0.2-0.1s0.1,0,0.1,0s0,0.1,0,0.1c0,0.1,0,0.1-0.1,0.1c0,0-0.1,0.1-0.2,0.2
					c-0.1,0.1-0.3,0.2-0.5,0.2c-0.2,0.1-0.4,0.1-0.6,0.1C365.8,454.5,365.5,454.4,365.3,454.2z"/>
				<path d="M379,451c0.2,0.2,0.3,0.6,0.3,1.1v2.3c0,0.1,0,0.1,0,0.1c0,0-0.1,0-0.1,0s-0.1,0-0.1,0c0,0,0-0.1,0-0.1v-2.2
					c0-0.4-0.1-0.7-0.2-0.9s-0.4-0.3-0.8-0.3c-0.4,0-0.7,0.1-0.9,0.4c-0.2,0.2-0.4,0.6-0.4,1v2c0,0.1,0,0.1,0,0.1c0,0-0.1,0-0.1,0
					c0,0-0.1,0-0.1,0c0,0,0-0.1,0-0.1v-5.1c0-0.1,0-0.1,0-0.1c0,0,0.1,0,0.1,0s0.1,0,0.1,0c0,0,0,0.1,0,0.1v2.2
					c0.1-0.2,0.3-0.4,0.5-0.6s0.5-0.2,0.8-0.2C378.4,450.6,378.8,450.7,379,451z"/>
			</g>
		</g>
	</g>
	<g>
		<path class="st0" d="M359.6,382.6c-16.3-0.7-32.6-0.1-48.9,0.3c-7.2,0.1-14.5,0.3-21.7,0.6c-1.5,0.1-3.1,0-4.5,0.5
			c-1.7,0.6-4.2,2.6-1.9,4.1c1.7,1.1,4.2,1.1,6.2,1.3c9.1,0.8,18.4,0.6,27.5,1.8c-0.1-0.1-0.2-0.3-0.3-0.4c-0.8,1-3.1,0.8-4.2,0.9
			c-1.7,0.1-3.4,0.1-5.1,0.4c-1,0.2-2.4,0.4-3,1.3c-1,1.3,0.9,2.1,1.8,2.4c2.6,0.8,5.4,0.4,8.1,0.7c1.2,0.1,2.7,0.3,3.6,1.3
			c0.8,0.9,0.4,2-0.5,2.7c-2.2,1.8-6.3,1.6-8.9,1.5c-3.3,0-6.6-0.4-9.8-0.8c-12.5-1.7-24.7-5.4-37.3-6.3c-5.7-0.4-11.5-0.4-17.1,0.9
			c-2.8,0.6-8,2.9-5,6.4c1.6,1.9,4.2,2.6,6.5,3c2.8,0.5,5.8,0.4,8.6-0.1c2.2-0.4,4.8-0.9,6.6-2.3c1.6-1.3,1.1-2.7-0.9-3
			c-0.5-0.1-2.1,0.7-1.1,0.9c1.3,0.3,1.4,1.2,0.4,2c-0.9,0.7-2.4,1-3.5,1.3c-2.6,0.6-5.3,0.8-8,0.5c-2.3-0.3-4.9-0.8-6.6-2.5
			c-1.5-1.5-1.5-3.4,0.4-4.4c2.4-1.3,5.7-1.5,8.4-1.7c2.8-0.2,5.7-0.2,8.5-0.1c5.7,0.3,11.4,1.2,17,2.3c10.9,2.1,21.9,5.1,33.2,5
			c2.2,0,4.5-0.2,6.7-0.8c1.6-0.4,3.5-1.1,4.3-2.6c2.1-3.8-5.1-4.1-7-4.2c-0.7,0-7.9-0.1-6.8-2c0.5-0.8,3.3-0.6,4.1-0.7
			c2.4-0.1,6.6,0.2,8.2-1.9c0.2-0.2,0-0.4-0.3-0.4c-7.8-1-15.8-1-23.6-1.5c-1.6-0.1-3.3-0.2-4.9-0.4c-1-0.1-1.9-0.2-2.8-0.4
			c-1.8-0.4-3.9-1.8-1.3-3.2c0.5-0.3,0-0.1,0.5-0.1c0.3,0,0.5-0.1,0.8-0.1c1-0.1,2-0.1,3-0.2c14.4-0.6,28.8-0.8,43.3-1
			c8.9-0.1,17.7-0.3,26.6,0.1C359.5,383.6,360.8,382.7,359.6,382.6L359.6,382.6z"/>
		<path class="st1" d="M236.6,402.8c0,1.8-0.1,3.7-0.1,5.5c0,0.1,0.2,0.1,0.2,0c0-1.8,0.1-3.7,0.1-5.5
			C236.8,402.6,236.6,402.7,236.6,402.8L236.6,402.8z"/>
		<path class="st2" d="M240.1,404.6c0,1.3,0,2.5-0.1,3.8c0,0.1,0.2,0,0.2,0c0-1.3,0-2.5,0.1-3.8
			C240.3,404.5,240.1,404.5,240.1,404.6L240.1,404.6z"/>
		<path class="st3" d="M246.1,406c0,1.3,0,2.5-0.1,3.8c0,0.1,0.2,0.1,0.2,0c0-1.3,0-2.5,0.1-3.8C246.3,405.8,246.1,405.9,246.1,406
			L246.1,406z"/>
		<path class="st3" d="M252.9,406.5c0,0.6,0,1.1,0,1.7c0,0.1,0.2,0.1,0.2,0c0-0.6,0-1.1,0-1.7C253.1,406.4,252.9,406.4,252.9,406.5
			L252.9,406.5z"/>
		<path class="st3" d="M258.1,405.8c0,0.6,0,1.1,0,1.7c0,0.1,0.2,0,0.2,0c0-0.6,0-1.1,0-1.7C258.3,405.7,258.1,405.7,258.1,405.8
			L258.1,405.8z"/>
		<path class="st3" d="M262.4,404.2c0,0.3,0,0.6,0,0.8c0,0.1,0.2,0.1,0.2,0c0-0.3,0-0.6,0-0.8C262.6,404,262.4,404.1,262.4,404.2
			L262.4,404.2z"/>
		<path class="st0" d="M248.8,397.1c0,0.8,0,1.7,0,2.5c0,0.1,0.2,0,0.2,0c0-0.8,0-1.7,0-2.5C249,397,248.8,397,248.8,397.1
			L248.8,397.1z"/>
		<path class="st0" d="M269.3,397.9c0,1.3,0,2.5-0.1,3.8c0,0.1,0.2,0.1,0.2,0c0-1.3,0-2.5,0.1-3.8
			C269.5,397.8,269.3,397.8,269.3,397.9L269.3,397.9z"/>
		<path class="st0" d="M244,397.3c0,1.3,0,2.5-0.1,3.8c0,0.1,0.2,0.1,0.2,0c0-1.3,0-2.5,0.1-3.8C244.2,397.2,244,397.2,244,397.3
			L244,397.3z"/>
		<path class="st0" d="M274.4,399.3c0,1.3,0,2.5-0.1,3.8c0,0.1,0.2,0.1,0.2,0c0-1.3,0-2.5,0.1-3.8
			C274.6,399.1,274.4,399.2,274.4,399.3L274.4,399.3z"/>
		<path class="st0" d="M280.3,400.7c0,1.6-0.1,3.1-0.1,4.7c0,0.1,0.2,0.1,0.2,0c0-1.6,0.1-3.1,0.1-4.7
			C280.6,400.5,280.3,400.6,280.3,400.7L280.3,400.7z"/>
		<path class="st0" d="M284.6,402c0,1,0,2-0.1,3c0,0.1,0.2,0.1,0.2,0c0-1,0-2,0.1-3C284.8,401.9,284.6,401.9,284.6,402L284.6,402z"
			/>
		<path class="st0" d="M291.4,403c0,1.3,0,2.5-0.1,3.8c0,0.1,0.2,0.1,0.2,0c0-1.3,0-2.5,0.1-3.8C291.7,402.9,291.4,402.9,291.4,403
			L291.4,403z"/>
		<path class="st0" d="M295.7,403.5c0,1.4-0.1,2.8-0.1,4.2c0,0.1,0.2,0.1,0.2,0c0-1.4,0.1-2.8,0.1-4.2
			C295.9,403.4,295.7,403.4,295.7,403.5L295.7,403.5z"/>
		<path class="st0" d="M300.8,404c0,1,0,2-0.1,3c0,0,0.2,0,0.2-0.1c0-1,0-2,0.1-3C301,403.9,300.8,404,300.8,404L300.8,404z"/>
		<path class="st0" d="M306.5,403.8c0,1.3,0,2.5-0.1,3.8c0,0.1,0.2,0.1,0.2,0c0-1.3,0-2.5,0.1-3.8
			C306.8,403.7,306.5,403.7,306.5,403.8L306.5,403.8z"/>
		<path class="st4" d="M310.8,403.4c0,1.4-0.1,2.8-0.1,4.2c0,0.1,0.2,0.1,0.2,0c0-1.4,0.1-2.8,0.1-4.2
			C311.1,403.3,310.8,403.3,310.8,403.4L310.8,403.4z"/>
		<path class="st4" d="M316,403.6c0,1,0,2-0.1,3c0,0,0.2,0,0.2-0.1c0-1,0-2,0.1-3C316.2,403.5,316,403.5,316,403.6L316,403.6z"/>
		<path class="st5" d="M281.9,388.3c0,0.8,0,1.7,0,2.5c0,0.1,0.2,0.1,0.2,0c0-0.8,0-1.7,0-2.5C282.1,388.2,281.9,388.2,281.9,388.3
			L281.9,388.3z"/>
		<path class="st6" d="M285.9,389.6c0,0.7,0,1.4,0,2.1c0,0.1,0.2,0,0.2-0.1c0-0.7,0-1.4,0-2.1C286.1,389.5,285.9,389.6,285.9,389.6
			L285.9,389.6z"/>
		<path class="st6" d="M291.7,390.4c0,0.7,0,1.4,0,2.1c0,0.1,0.2,0.1,0.2,0c0-0.7,0-1.4,0-2.1C291.9,390.3,291.7,390.3,291.7,390.4
			L291.7,390.4z"/>
		<path class="st0" d="M308,396.9c0,0.4,0,0.8,0,1.3c0,0.1,0.2,0.1,0.2,0c0-0.4,0-0.8,0-1.3C308.2,396.7,308,396.8,308,396.9
			L308,396.9z"/>
		<path class="st0" d="M311.4,397.4c0,0.4,0,0.8,0,1.3c0,0.1,0.2,0,0.2-0.1c0-0.4,0-0.8,0-1.3C311.6,397.3,311.4,397.3,311.4,397.4
			L311.4,397.4z"/>
		<path class="st0" d="M316.4,392.4c0,0.7,0,1.4,0,2.1c0,0.1,0.2,0.1,0.2,0c0-0.7,0-1.4,0-2.1C316.7,392.3,316.4,392.3,316.4,392.4
			L316.4,392.4z"/>
		<path class="st6" d="M296.3,390.7c0,0.7,0,1.4,0,2.1c0,0.1,0.2,0.1,0.2,0c0-0.7,0-1.4,0-2.1C296.5,390.6,296.3,390.6,296.3,390.7
			L296.3,390.7z"/>
		<path class="st7" d="M293.1,385.6c0,0.3,0,0.6,0,0.8c0,0.1,0.2,0.1,0.2,0c0-0.3,0-0.6,0-0.8C293.3,385.5,293.1,385.5,293.1,385.6
			L293.1,385.6z"/>
		<path class="st7" d="M300.3,384.8c0,0.6,0,1.1,0,1.7c0,0.1,0.2,0,0.2-0.1c0-0.6,0-1.1,0-1.7C300.5,384.7,300.3,384.7,300.3,384.8
			L300.3,384.8z"/>
		<path class="st7" d="M308,384.5c0,0.6,0,1.1,0,1.7c0,0,0.2,0,0.2-0.1c0-0.6,0-1.1,0-1.7C308.3,384.4,308,384.5,308,384.5
			L308,384.5z"/>
		<path class="st7" d="M315.7,384.2c0,0.7,0,1.4,0,2.1c0,0.1,0.2,0.1,0.2,0c0-0.7,0-1.4,0-2.1C316,384.1,315.7,384.1,315.7,384.2
			L315.7,384.2z"/>
		<path class="st7" d="M322.6,384.3c0,0.7,0,1.4,0,2.1c0,0.1,0.2,0.1,0.2,0c0-0.7,0-1.4,0-2.1C322.8,384.2,322.6,384.2,322.6,384.3
			L322.6,384.3z"/>
		<path class="st8" d="M337.1,384.3c0,1.1,0,2.3-0.1,3.4c0,0,0.2,0,0.2-0.1c0-1.1,0-2.3,0.1-3.4
			C337.3,384.2,337.1,384.2,337.1,384.3L337.1,384.3z"/>
		<path class="st8" d="M344,384.3c0,1,0,2-0.1,3c0,0.1,0.2,0.1,0.2,0c0-1,0-2,0.1-3C344.2,384.2,344,384.2,344,384.3L344,384.3z"/>
		<path class="st9" d="M348.2,384.5c0,1,0,2-0.1,3c0,0.1,0.2,0.1,0.2,0c0-1,0-2,0.1-3C348.5,384.3,348.2,384.4,348.2,384.5
			L348.2,384.5z"/>
		<path class="st9" d="M352.8,384.5c0,1,0,2-0.1,3c0,0.1,0.2,0.1,0.2,0c0-1,0-2,0.1-3C353,384.3,352.8,384.4,352.8,384.5
			L352.8,384.5z"/>
		<path class="st10" d="M357.1,384.6c0,1,0,2-0.1,3c0,0.1,0.2,0.1,0.2,0c0-1,0-2,0.1-3C357.3,384.5,357.1,384.5,357.1,384.6
			L357.1,384.6z"/>
		<path class="st7" d="M330.3,384.4c0,1.1,0,2.3-0.1,3.4c0,0,0.2,0,0.2-0.1c0-1.1,0-2.3,0.1-3.4
			C330.5,384.3,330.3,384.3,330.3,384.4L330.3,384.4z"/>
	</g>
</g>
</svg>
