<?xml version="1.0" encoding="utf-8"?>
<!-- Generator: Adobe Illustrator 19.1.0, SVG Export Plug-In . SVG Version: 6.00 Build 0)  -->
<svg version="1.1" id="Layer_1" xmlns="http://www.w3.org/2000/svg" xmlns:xlink="http://www.w3.org/1999/xlink" x="0px" y="0px"
	 viewBox="0 0 86.3 86.3" style="enable-background:new 0 0 86.3 86.3;" xml:space="preserve">
<style type="text/css">
	.st0{fill:#4F1A72;}
	.st1{fill:#FFFFFF;}
</style>
<g>
	<circle class="st0" cx="43.1" cy="43.1" r="43.1"/>
	<g>
		<g>
			<g>
				<path class="st1" d="M13.7,48.1l-1.5,3.7h-0.8L15.9,41h0.4l4.5,10.8H20l-1.6-3.7H13.7z M16.1,42.2c-0.2,0.5-0.3,0.9-0.4,1.2
					l-1.7,4h4.2l-1.6-4C16.3,42.9,16.1,42.5,16.1,42.2z"/>
				<path class="st1" d="M30.3,50.7c-0.7,0.9-1.8,1.3-3.3,1.3c-1.5,0-2.6-0.4-3.3-1.3c-0.7-0.9-1.1-2-1.1-3.5v-6.1h0.8v6.1
					c0,2.8,1.2,4.1,3.7,4.1c2.4,0,3.7-1.4,3.7-4.1v-6.1h0.8v6.1C31.4,48.7,31,49.9,30.3,50.7z"/>
				<path class="st1" d="M34.7,51.8V41.1c1-0.1,1.8-0.1,2.4-0.1c1,0,1.9,0.3,2.5,0.8c0.7,0.5,1,1.3,1,2.2c0,0.7-0.2,1.3-0.6,1.8
					c-0.4,0.6-0.8,1-1.3,1.3c1.3,1.7,2.1,2.8,2.4,3.1c0.6,0.7,1.3,1,2.1,1.1l0,0.5c-0.6,0-1.1-0.1-1.5-0.3c-0.4-0.2-0.8-0.5-1.2-0.9
					c-0.4-0.4-1.2-1.5-2.5-3.3c-0.9,0-1.8,0-2.6-0.1v4.4H34.7z M37.7,46.9c0.4,0,0.9-0.3,1.4-0.9c0.5-0.6,0.7-1.2,0.7-2
					s-0.3-1.3-0.8-1.7c-0.5-0.4-1.2-0.6-2-0.6c-0.4,0-1,0-1.6,0.1v5.1C36.2,46.8,37,46.9,37.7,46.9z"/>
				<path class="st1" d="M49.1,52c-1.5,0-2.8-0.5-3.9-1.6c-1-1.1-1.6-2.4-1.6-3.9c0-1.6,0.5-2.9,1.6-3.9c1-1.1,2.3-1.6,3.9-1.6
					c1.5,0,2.8,0.5,3.9,1.6c1,1.1,1.6,2.4,1.6,3.9c0,1.6-0.5,2.9-1.6,3.9C51.9,51.5,50.7,52,49.1,52z M49.1,41.6
					c-1.3,0-2.4,0.5-3.3,1.4c-0.9,0.9-1.3,2.1-1.3,3.5c0,1.4,0.4,2.5,1.3,3.4c0.9,0.9,2,1.4,3.3,1.4c1.3,0,2.4-0.5,3.3-1.4
					c0.9-0.9,1.3-2.1,1.3-3.4c0-1.4-0.4-2.5-1.3-3.5C51.6,42.1,50.5,41.6,49.1,41.6z"/>
				<path class="st1" d="M56.5,51.8V41.1c1-0.1,1.8-0.1,2.4-0.1c1,0,1.9,0.3,2.5,0.8c0.7,0.5,1,1.3,1,2.2c0,0.7-0.2,1.3-0.6,1.8
					c-0.4,0.6-0.8,1-1.3,1.3c1.3,1.7,2.1,2.8,2.4,3.1c0.6,0.7,1.3,1,2.1,1.1l0,0.5c-0.6,0-1.1-0.1-1.5-0.3c-0.4-0.2-0.8-0.5-1.2-0.9
					c-0.4-0.4-1.2-1.5-2.5-3.3c-0.9,0-1.8,0-2.6-0.1v4.4H56.5z M59.4,46.9c0.4,0,0.9-0.3,1.4-0.9c0.5-0.6,0.7-1.2,0.7-2
					s-0.3-1.3-0.8-1.7s-1.2-0.6-2-0.6c-0.4,0-1,0-1.6,0.1v5.1C58,46.8,58.8,46.9,59.4,46.9z"/>
				<path class="st1" d="M67.7,48.1l-1.5,3.7h-0.8L69.9,41h0.4l4.5,10.8h-0.8l-1.6-3.7H67.7z M70.1,42.2c-0.2,0.5-0.3,0.9-0.4,1.2
					l-1.7,4h4.2l-1.6-4C70.4,42.9,70.2,42.5,70.1,42.2z"/>
			</g>
			<g>
				<g>
					<path class="st1" d="M12.4,54.3v0.9c0,0,0,0,0,0.1c0,0,0,0,0,0s0,0,0,0c0,0,0,0,0,0V55c0,0.1-0.1,0.2-0.2,0.2
						c-0.1,0.1-0.2,0.1-0.3,0.1c-0.1,0-0.2,0-0.3-0.1c-0.1,0-0.1-0.1-0.2-0.2c0-0.1-0.1-0.1-0.1-0.2c0-0.1,0-0.2,0.1-0.3
						s0.2-0.1,0.3-0.1c0.1,0,0.3,0,0.6,0h0.1v-0.1c0-0.1,0-0.2-0.1-0.3c-0.1-0.1-0.1-0.1-0.3-0.1c-0.1,0-0.2,0-0.3,0
						c-0.1,0-0.1,0.1-0.2,0.1c0,0,0,0,0,0s0,0-0.1,0c0,0,0,0,0,0c0,0,0,0,0,0c0,0,0-0.1,0.1-0.1c0.1,0,0.1-0.1,0.2-0.1
						c0.1,0,0.2,0,0.2,0C12.3,53.7,12.4,53.9,12.4,54.3z M12.1,55.1c0.1,0,0.1-0.1,0.2-0.2c0-0.1,0.1-0.2,0.1-0.3v-0.1h-0.1
						c-0.2,0-0.4,0-0.5,0c-0.1,0-0.2,0-0.2,0.1c0,0-0.1,0.1-0.1,0.2c0,0.1,0,0.2,0.1,0.2c0.1,0.1,0.2,0.1,0.3,0.1
						C11.9,55.1,12,55.1,12.1,55.1z"/>
					<path class="st1" d="M17.2,53.8C17.2,53.8,17.2,53.8,17.2,53.8l0,1.4c0,0,0,0.1-0.1,0.1c0,0,0,0,0,0c0,0,0,0,0,0V55
						c0,0.1-0.1,0.2-0.2,0.2c-0.1,0.1-0.2,0.1-0.3,0.1c-0.2,0-0.3,0-0.4-0.1c-0.1-0.1-0.1-0.2-0.1-0.4v-0.9c0,0,0,0,0,0c0,0,0,0,0,0
						c0,0,0,0,0,0c0,0,0,0,0,0v0.9c0,0.2,0,0.3,0.1,0.3c0.1,0.1,0.2,0.1,0.3,0.1c0.2,0,0.3,0,0.4-0.1c0.1-0.1,0.1-0.2,0.1-0.4v-0.8
						C17.1,53.8,17.1,53.8,17.2,53.8C17.1,53.8,17.2,53.8,17.2,53.8C17.2,53.8,17.2,53.8,17.2,53.8z"/>
					<path class="st1" d="M21.6,53.8C21.6,53.8,21.6,53.8,21.6,53.8C21.6,53.8,21.6,53.8,21.6,53.8c0.1,0.1,0,0.1,0,0.1l-0.1,0
						c-0.1,0-0.3,0.1-0.3,0.2c-0.1,0.1-0.1,0.2-0.1,0.3v0.8c0,0,0,0,0,0.1c0,0,0,0,0,0s0,0,0,0c0,0,0,0,0-0.1v-1.4
						c0,0,0-0.1,0.1-0.1c0,0,0,0,0,0c0,0,0,0,0,0.1V54C21.1,53.9,21.3,53.8,21.6,53.8L21.6,53.8L21.6,53.8z"/>
					<path class="st1" d="M25.2,55.2C25.1,55.1,25,55,25,54.9c-0.1-0.1-0.1-0.2-0.1-0.4c0-0.2,0-0.3,0.1-0.4
						c0.1-0.1,0.1-0.2,0.2-0.3c0.1-0.1,0.2-0.1,0.3-0.1c0.1,0,0.2,0,0.3,0.1c0.1,0.1,0.2,0.2,0.2,0.3c0.1,0.1,0.1,0.2,0.1,0.4
						c0,0.2,0,0.3-0.1,0.4c-0.1,0.1-0.1,0.2-0.2,0.3c-0.1,0.1-0.2,0.1-0.3,0.1C25.4,55.3,25.3,55.2,25.2,55.2z M25.9,55
						c0.1-0.1,0.1-0.3,0.1-0.5c0-0.2,0-0.4-0.1-0.5c-0.1-0.1-0.2-0.2-0.4-0.2c-0.2,0-0.3,0.1-0.4,0.2c-0.1,0.1-0.1,0.3-0.1,0.5
						c0,0.2,0,0.4,0.1,0.5c0.1,0.1,0.2,0.2,0.4,0.2C25.7,55.1,25.8,55.1,25.9,55z"/>
					<path class="st1" d="M30.4,53.8C30.5,53.8,30.5,53.8,30.4,53.8C30.5,53.8,30.5,53.8,30.4,53.8c0.1,0.1,0,0.1,0,0.1l-0.1,0
						c-0.1,0-0.3,0.1-0.3,0.2c-0.1,0.1-0.1,0.2-0.1,0.3v0.8c0,0,0,0,0,0.1c0,0,0,0,0,0s0,0,0,0c0,0,0,0,0-0.1v-1.4
						c0,0,0-0.1,0.1-0.1c0,0,0,0,0,0c0,0,0,0,0,0.1V54C30,53.9,30.1,53.8,30.4,53.8L30.4,53.8L30.4,53.8z"/>
					<path class="st1" d="M34.9,54.3v0.9c0,0,0,0,0,0.1c0,0,0,0,0,0s0,0,0,0c0,0,0,0,0,0V55c0,0.1-0.1,0.2-0.2,0.2
						c-0.1,0.1-0.2,0.1-0.3,0.1c-0.1,0-0.2,0-0.3-0.1c-0.1,0-0.1-0.1-0.2-0.2c0-0.1-0.1-0.1-0.1-0.2c0-0.1,0-0.2,0.1-0.3
						c0.1-0.1,0.2-0.1,0.3-0.1c0.1,0,0.3,0,0.6,0h0.1v-0.1c0-0.1,0-0.2-0.1-0.3c-0.1-0.1-0.1-0.1-0.3-0.1c-0.1,0-0.2,0-0.3,0
						c-0.1,0-0.1,0.1-0.2,0.1c0,0,0,0,0,0s0,0-0.1,0c0,0,0,0,0,0c0,0,0,0,0,0c0,0,0-0.1,0.1-0.1c0.1,0,0.1-0.1,0.2-0.1
						c0.1,0,0.2,0,0.2,0C34.8,53.7,34.9,53.9,34.9,54.3z M34.6,55.1c0.1,0,0.1-0.1,0.2-0.2c0-0.1,0.1-0.2,0.1-0.3v-0.1h-0.1
						c-0.2,0-0.4,0-0.5,0c-0.1,0-0.2,0-0.2,0.1c0,0-0.1,0.1-0.1,0.2c0,0.1,0,0.2,0.1,0.2c0.1,0.1,0.2,0.1,0.3,0.1
						C34.4,55.1,34.5,55.1,34.6,55.1z"/>
					<path class="st1" d="M38.8,55.2c-0.1,0-0.1-0.1-0.2-0.1c0,0-0.1,0-0.1-0.1c0,0,0,0,0-0.1c0,0,0,0,0,0c0,0,0,0,0,0c0,0,0,0,0,0
						c0,0,0,0,0,0c0.1,0,0.1,0.1,0.2,0.1c0.1,0,0.1,0,0.2,0c0.1,0,0.2,0,0.3-0.1c0.1,0,0.1-0.1,0.1-0.2c0-0.1,0-0.1,0-0.1
						c0,0-0.1-0.1-0.1-0.1c-0.1,0-0.1,0-0.2-0.1c-0.2,0-0.3-0.1-0.4-0.2c-0.1-0.1-0.1-0.1-0.1-0.2c0-0.1,0-0.2,0.1-0.3
						c0.1-0.1,0.2-0.1,0.4-0.1c0.1,0,0.1,0,0.2,0c0.1,0,0.1,0,0.2,0.1c0,0,0.1,0.1,0.1,0.1c0,0,0,0,0,0.1c0,0,0,0,0,0c0,0,0,0,0,0
						c0,0,0,0-0.1,0c-0.1,0-0.1-0.1-0.2-0.1c-0.1,0-0.1,0-0.2,0c-0.1,0-0.2,0-0.3,0.1c-0.1,0.1-0.1,0.1-0.1,0.2c0,0.1,0,0.1,0,0.1
						c0,0,0.1,0.1,0.1,0.1c0.1,0,0.1,0,0.2,0.1c0.1,0,0.2,0.1,0.3,0.1c0.1,0,0.1,0.1,0.2,0.1c0,0,0,0.1,0,0.2c0,0.1,0,0.2-0.1,0.3
						c-0.1,0.1-0.2,0.1-0.4,0.1C39,55.3,38.9,55.2,38.8,55.2z"/>
					<path class="st1" d="M43.8,55.2C43.8,55.2,43.8,55.3,43.8,55.2l-0.2,0.1c-0.2,0-0.3-0.1-0.3-0.1c-0.1-0.1-0.1-0.2-0.1-0.4v-0.8
						H43c0,0,0,0,0,0c0,0,0,0,0,0c0,0,0,0,0,0c0,0,0,0,0,0h0.2v-0.4c0,0,0,0,0-0.1c0,0,0,0,0,0c0,0,0,0,0,0c0,0,0,0,0,0.1v0.4h0.4
						c0,0,0,0,0,0c0,0,0,0,0,0c0,0,0,0,0,0c0,0,0,0,0,0h-0.4v0.8c0,0.1,0,0.2,0.1,0.3c0.1,0.1,0.1,0.1,0.2,0.1L43.8,55.2
						C43.8,55.1,43.8,55.2,43.8,55.2z"/>
					<path class="st1" d="M48.4,53.8C48.4,53.8,48.4,53.8,48.4,53.8l0,1.4c0,0,0,0.1-0.1,0.1c0,0,0,0,0,0c0,0,0,0,0,0V55
						c0,0.1-0.1,0.2-0.2,0.2c-0.1,0.1-0.2,0.1-0.3,0.1c-0.2,0-0.3,0-0.4-0.1c-0.1-0.1-0.1-0.2-0.1-0.4v-0.9c0,0,0,0,0,0c0,0,0,0,0,0
						c0,0,0,0,0,0c0,0,0,0,0,0v0.9c0,0.2,0,0.3,0.1,0.3c0.1,0.1,0.2,0.1,0.3,0.1c0.2,0,0.3,0,0.4-0.1c0.1-0.1,0.1-0.2,0.1-0.4v-0.8
						C48.3,53.8,48.3,53.8,48.4,53.8C48.3,53.8,48.3,53.8,48.4,53.8C48.4,53.8,48.4,53.8,48.4,53.8z"/>
					<path class="st1" d="M53.2,53.1C53.3,53.1,53.3,53.2,53.2,53.1l0,2.1c0,0,0,0,0,0.1c0,0,0,0,0,0c0,0-0.1,0-0.1-0.1v-0.2
						c0,0.1-0.1,0.2-0.2,0.2s-0.2,0.1-0.3,0.1c-0.1,0-0.2,0-0.3-0.1c-0.1-0.1-0.2-0.2-0.2-0.3C52,54.8,52,54.6,52,54.5
						c0-0.2,0-0.3,0.1-0.4c0.1-0.1,0.1-0.2,0.2-0.3c0.1-0.1,0.2-0.1,0.3-0.1c0.1,0,0.2,0,0.3,0.1c0.1,0.1,0.2,0.1,0.2,0.2v-0.9
						C53.1,53.1,53.2,53.1,53.2,53.1C53.2,53.1,53.2,53.1,53.2,53.1z M53,55c0.1-0.1,0.1-0.3,0.1-0.5c0-0.2,0-0.4-0.1-0.5
						c-0.1-0.1-0.2-0.2-0.4-0.2c-0.2,0-0.3,0.1-0.4,0.2c-0.1,0.1-0.1,0.3-0.1,0.5c0,0.2,0,0.4,0.1,0.5c0.1,0.1,0.2,0.2,0.4,0.2
						C52.8,55.1,52.9,55.1,53,55z"/>
					<path class="st1" d="M56.9,53.4C56.9,53.3,56.9,53.3,56.9,53.4c0-0.1,0-0.1,0-0.2c0,0,0,0,0.1,0c0,0,0.1,0,0.1,0c0,0,0,0,0,0.1
						c0,0,0,0.1,0,0.1C57,53.4,57,53.4,56.9,53.4C57,53.4,56.9,53.4,56.9,53.4z M56.9,55.2C56.9,55.2,56.9,55.2,56.9,55.2l0-1.4
						c0,0,0,0,0,0c0,0,0,0,0,0s0,0,0,0c0,0,0,0,0,0v1.4C57.1,55.2,57,55.2,56.9,55.2C57,55.2,57,55.3,56.9,55.2
						C57,55.3,57,55.2,56.9,55.2z"/>
					<path class="st1" d="M60.9,55.2c-0.1-0.1-0.2-0.2-0.2-0.3c-0.1-0.1-0.1-0.2-0.1-0.4c0-0.2,0-0.3,0.1-0.4
						c0.1-0.1,0.1-0.2,0.2-0.3c0.1-0.1,0.2-0.1,0.3-0.1c0.1,0,0.2,0,0.3,0.1c0.1,0.1,0.2,0.2,0.2,0.3c0.1,0.1,0.1,0.2,0.1,0.4
						c0,0.2,0,0.3-0.1,0.4c-0.1,0.1-0.1,0.2-0.2,0.3c-0.1,0.1-0.2,0.1-0.3,0.1C61.1,55.3,61,55.2,60.9,55.2z M61.6,55
						c0.1-0.1,0.1-0.3,0.1-0.5c0-0.2,0-0.4-0.1-0.5c-0.1-0.1-0.2-0.2-0.4-0.2c-0.2,0-0.3,0.1-0.4,0.2c-0.1,0.1-0.1,0.3-0.1,0.5
						c0,0.2,0,0.4,0.1,0.5c0.1,0.1,0.2,0.2,0.4,0.2C61.4,55.1,61.6,55.1,61.6,55z"/>
					<path class="st1" d="M65.4,55.2C65.4,55.2,65.4,55.2,65.4,55.2c0-0.1,0-0.2,0-0.2c0,0,0.1,0,0.1,0c0,0,0.1,0,0.1,0
						c0,0,0,0.1,0,0.1c0,0,0,0.1,0,0.1C65.5,55.2,65.5,55.3,65.4,55.2C65.4,55.3,65.4,55.2,65.4,55.2z"/>
					<path class="st1" d="M69.4,55.2c-0.1-0.1-0.2-0.2-0.2-0.3c-0.1-0.1-0.1-0.2-0.1-0.4c0-0.2,0-0.3,0.1-0.4
						c0.1-0.1,0.1-0.2,0.2-0.3s0.2-0.1,0.3-0.1c0.1,0,0.1,0,0.2,0c0.1,0,0.1,0,0.2,0.1c0,0,0.1,0.1,0.1,0.1c0,0,0,0,0,0.1
						c0,0,0,0,0,0c0,0,0,0,0,0c0,0,0,0,0,0c0,0,0,0,0,0c-0.1,0-0.1-0.1-0.2-0.1c-0.1,0-0.1,0-0.2,0c-0.2,0-0.3,0.1-0.4,0.2
						c-0.1,0.1-0.1,0.3-0.1,0.5c0,0.2,0,0.3,0.1,0.5c0.1,0.1,0.2,0.2,0.4,0.2c0.1,0,0.2,0,0.2,0c0.1,0,0.1-0.1,0.2-0.1
						c0,0,0.1,0,0.1,0c0,0,0,0,0,0s0,0,0,0c0,0,0,0,0,0.1c0,0,0,0-0.1,0.1c-0.1,0-0.1,0.1-0.2,0.1c-0.1,0-0.2,0-0.2,0
						C69.6,55.3,69.5,55.2,69.4,55.2z"/>
					<path class="st1" d="M74.7,53.9c0.1,0.1,0.1,0.2,0.1,0.4v0.9c0,0,0,0,0,0.1c0,0,0,0,0,0s0,0,0,0s0,0,0-0.1v-0.9
						C74.7,54.2,74.7,54,74.7,53.9c-0.1,0-0.2,0-0.4,0c-0.2,0-0.3,0-0.4,0.1c-0.1,0.1-0.1,0.2-0.1,0.4v0.8c0,0,0,0,0,0.1
						c0,0,0,0,0,0c0,0,0,0,0,0c0,0,0,0,0,0v-2c0,0,0,0,0-0.1c0,0,0,0,0,0s0,0,0,0c0,0,0,0,0,0.1V54c0-0.1,0.1-0.2,0.2-0.2
						c0.1-0.1,0.2-0.1,0.3-0.1C74.5,53.7,74.6,53.8,74.7,53.9z"/>
				</g>
			</g>
		</g>
		<g>
			<path class="st1" d="M67.1,27.1c-6.4-0.3-12.8,0-19.1,0.1c-2.8,0.1-5.7,0.1-8.5,0.2c-0.6,0-1.2,0-1.8,0.2c-0.7,0.2-1.7,1-0.7,1.6
				c0.7,0.4,1.6,0.4,2.4,0.5c3.6,0.3,7.2,0.2,10.8,0.7c0-0.1-0.1-0.1-0.1-0.2c-0.3,0.4-1.2,0.3-1.6,0.4c-0.7,0-1.3,0-2,0.1
				c-0.4,0.1-0.9,0.2-1.2,0.5c-0.4,0.5,0.3,0.8,0.7,0.9c1,0.3,2.1,0.2,3.2,0.3c0.5,0,1.1,0.1,1.4,0.5c0.3,0.4,0.2,0.8-0.2,1.1
				c-0.9,0.7-2.5,0.6-3.5,0.6c-1.3,0-2.6-0.1-3.8-0.3c-4.9-0.7-9.7-2.1-14.6-2.5c-2.2-0.2-4.5-0.2-6.7,0.3c-1.1,0.3-3.1,1.1-2,2.5
				c0.6,0.7,1.7,1,2.6,1.2c1.1,0.2,2.3,0.1,3.4,0c0.8-0.1,1.9-0.3,2.6-0.9c0.6-0.5,0.4-1-0.3-1.2c-0.2,0-0.8,0.3-0.4,0.4
				c0.5,0.1,0.6,0.5,0.2,0.8c-0.4,0.3-0.9,0.4-1.4,0.5c-1,0.2-2.1,0.3-3.1,0.2c-0.9-0.1-1.9-0.3-2.6-1c-0.6-0.6-0.6-1.3,0.2-1.7
				c0.9-0.5,2.2-0.6,3.3-0.7c1.1-0.1,2.2-0.1,3.3,0c2.2,0.1,4.5,0.5,6.7,0.9c4.3,0.8,8.6,2,13,1.9c0.9,0,1.8-0.1,2.6-0.3
				c0.6-0.2,1.4-0.4,1.7-1c0.8-1.5-2-1.6-2.8-1.6c-0.3,0-3.1-0.1-2.7-0.8c0.2-0.3,1.3-0.2,1.6-0.3c0.9,0,2.6,0.1,3.2-0.8
				c0.1-0.1,0-0.2-0.1-0.2c-3.1-0.4-6.2-0.4-9.3-0.6c-0.6,0-1.3-0.1-1.9-0.1c-0.4,0-0.7-0.1-1.1-0.2c-0.7-0.2-1.5-0.7-0.5-1.2
				c0.2-0.1,0,0,0.2-0.1c0.1,0,0.2,0,0.3,0c0.4,0,0.8,0,1.2-0.1c5.6-0.3,11.3-0.3,16.9-0.4c3.5-0.1,6.9-0.1,10.4,0.1
				C67.1,27.5,67.6,27.2,67.1,27.1L67.1,27.1z"/>
			<path class="st1" d="M19,35c0,0.7,0,1.4,0,2.2c0,0,0.1,0,0.1,0C19,36.4,19,35.7,19,35C19.1,35,19,35,19,35L19,35z"/>
			<path class="st1" d="M20.3,35.7c0,0.5,0,1,0,1.5c0,0,0.1,0,0.1,0C20.4,36.7,20.4,36.2,20.3,35.7C20.4,35.7,20.3,35.7,20.3,35.7
				L20.3,35.7z"/>
			<path class="st1" d="M22.7,36.3c0,0.5,0,1,0,1.5c0,0,0.1,0,0.1,0C22.8,37.2,22.8,36.8,22.7,36.3C22.8,36.2,22.7,36.2,22.7,36.3
				L22.7,36.3z"/>
			<path class="st1" d="M25.4,36.5c0,0.2,0,0.4,0,0.7c0,0,0.1,0,0.1,0C25.4,36.9,25.4,36.7,25.4,36.5C25.5,36.4,25.4,36.4,25.4,36.5
				L25.4,36.5z"/>
			<path class="st1" d="M27.4,36.2c0,0.2,0,0.4,0,0.7c0,0,0.1,0,0.1,0C27.5,36.6,27.5,36.4,27.4,36.2C27.5,36.1,27.4,36.2,27.4,36.2
				L27.4,36.2z"/>
			<path class="st1" d="M29.1,35.6c0,0.1,0,0.2,0,0.3c0,0,0.1,0,0.1,0C29.1,35.8,29.2,35.7,29.1,35.6C29.2,35.5,29.1,35.5,29.1,35.6
				L29.1,35.6z"/>
			<path class="st1" d="M23.7,32.8c0,0.3,0,0.7,0,1c0,0,0.1,0,0.1,0C23.8,33.4,23.8,33.1,23.7,32.8C23.8,32.7,23.7,32.8,23.7,32.8
				L23.7,32.8z"/>
			<path class="st1" d="M31.8,33.1c0,0.5,0,1,0,1.5c0,0,0.1,0,0.1,0C31.8,34.1,31.8,33.6,31.8,33.1C31.9,33.1,31.8,33.1,31.8,33.1
				L31.8,33.1z"/>
			<path class="st1" d="M21.9,32.9c0,0.5,0,1,0,1.5c0,0,0.1,0,0.1,0C21.9,33.9,22,33.4,21.9,32.9C22,32.8,21.9,32.8,21.9,32.9
				L21.9,32.9z"/>
			<path class="st1" d="M33.8,33.6c0,0.5,0,1,0,1.5c0,0,0.1,0,0.1,0C33.8,34.6,33.9,34.1,33.8,33.6C33.9,33.6,33.8,33.6,33.8,33.6
				L33.8,33.6z"/>
			<path class="st1" d="M36.1,34.2c0,0.6,0,1.2,0,1.8c0,0,0.1,0,0.1,0C36.2,35.4,36.2,34.8,36.1,34.2C36.2,34.1,36.1,34.1,36.1,34.2
				L36.1,34.2z"/>
			<path class="st1" d="M37.8,34.7c0,0.4,0,0.8,0,1.2c0,0,0.1,0,0.1,0C37.8,35.5,37.9,35.1,37.8,34.7C37.9,34.7,37.8,34.7,37.8,34.7
				L37.8,34.7z"/>
			<path class="st1" d="M40.4,35.1c0,0.5,0,1,0,1.5c0,0,0.1,0,0.1,0C40.5,36.1,40.5,35.6,40.4,35.1C40.5,35,40.4,35.1,40.4,35.1
				L40.4,35.1z"/>
			<path class="st1" d="M42.1,35.3c0,0.6,0,1.1,0,1.7c0,0,0.1,0,0.1,0C42.2,36.4,42.2,35.8,42.1,35.3C42.2,35.2,42.1,35.3,42.1,35.3
				L42.1,35.3z"/>
			<path class="st1" d="M44.1,35.5c0,0.4,0,0.8,0,1.2c0,0,0.1,0,0.1,0C44.2,36.3,44.2,35.9,44.1,35.5C44.2,35.5,44.1,35.5,44.1,35.5
				L44.1,35.5z"/>
			<path class="st1" d="M46.4,35.4c0,0.5,0,1,0,1.5c0,0,0.1,0,0.1,0C46.4,36.4,46.4,35.9,46.4,35.4C46.5,35.4,46.4,35.4,46.4,35.4
				L46.4,35.4z"/>
			<path class="st1" d="M48,35.3c0,0.6,0,1.1,0,1.7c0,0,0.1,0,0.1,0C48.1,36.4,48.1,35.8,48,35.3C48.1,35.2,48,35.2,48,35.3L48,35.3
				z"/>
			<path class="st1" d="M50.1,35.3c0,0.4,0,0.8,0,1.2c0,0,0.1,0,0.1,0C50.1,36.1,50.1,35.7,50.1,35.3C50.1,35.3,50.1,35.3,50.1,35.3
				L50.1,35.3z"/>
			<path class="st1" d="M36.7,29.3c0,0.3,0,0.7,0,1c0,0,0.1,0,0.1,0C36.8,30,36.8,29.7,36.7,29.3C36.8,29.3,36.7,29.3,36.7,29.3
				L36.7,29.3z"/>
			<path class="st1" d="M38.3,29.9c0,0.3,0,0.6,0,0.8c0,0,0.1,0,0.1,0C38.4,30.4,38.4,30.1,38.3,29.9C38.4,29.8,38.3,29.8,38.3,29.9
				L38.3,29.9z"/>
			<path class="st1" d="M40.5,30.2c0,0.3,0,0.6,0,0.8c0,0,0.1,0,0.1,0C40.6,30.7,40.6,30.4,40.5,30.2C40.6,30.1,40.5,30.1,40.5,30.2
				L40.5,30.2z"/>
			<path class="st1" d="M46.9,32.7c0,0.2,0,0.3,0,0.5c0,0,0.1,0,0.1,0C47,33,47,32.9,46.9,32.7C47,32.6,46.9,32.7,46.9,32.7
				L46.9,32.7z"/>
			<path class="st1" d="M48.3,32.9c0,0.2,0,0.3,0,0.5c0,0,0.1,0,0.1,0C48.3,33.2,48.3,33,48.3,32.9C48.3,32.9,48.3,32.9,48.3,32.9
				L48.3,32.9z"/>
			<path class="st1" d="M50.2,31c0,0.3,0,0.6,0,0.8c0,0,0.1,0,0.1,0C50.3,31.5,50.3,31.2,50.2,31C50.3,30.9,50.2,30.9,50.2,31
				L50.2,31z"/>
			<path class="st1" d="M42.4,30.3c0,0.3,0,0.6,0,0.8c0,0,0.1,0,0.1,0C42.4,30.8,42.4,30.6,42.4,30.3C42.4,30.2,42.4,30.3,42.4,30.3
				L42.4,30.3z"/>
			<path class="st1" d="M41.1,28.3c0,0.1,0,0.2,0,0.3c0,0,0.1,0,0.1,0C41.2,28.5,41.2,28.4,41.1,28.3C41.2,28.2,41.1,28.3,41.1,28.3
				L41.1,28.3z"/>
			<path class="st1" d="M43.9,28c0,0.2,0,0.4,0,0.7c0,0,0.1,0,0.1,0C44,28.4,44,28.2,43.9,28C44,27.9,43.9,27.9,43.9,28L43.9,28z"/>
			<path class="st1" d="M46.9,27.9c0,0.2,0,0.4,0,0.7c0,0,0.1,0,0.1,0C47,28.3,47,28.1,46.9,27.9C47,27.8,46.9,27.8,46.9,27.9
				L46.9,27.9z"/>
			<path class="st1" d="M50,27.7c0,0.3,0,0.6,0,0.8c0,0,0.1,0,0.1,0C50,28.3,50,28,50,27.7C50.1,27.7,50,27.7,50,27.7L50,27.7z"/>
			<path class="st1" d="M52.6,27.8c0,0.3,0,0.6,0,0.8c0,0,0.1,0,0.1,0C52.7,28.3,52.7,28.1,52.6,27.8C52.7,27.7,52.6,27.8,52.6,27.8
				L52.6,27.8z"/>
			<path class="st1" d="M58.3,27.8c0,0.4,0,0.9,0,1.3c0,0,0.1,0,0.1,0C58.4,28.6,58.4,28.2,58.3,27.8C58.4,27.7,58.3,27.7,58.3,27.8
				L58.3,27.8z"/>
			<path class="st1" d="M61,27.8c0,0.4,0,0.8,0,1.2c0,0,0.1,0,0.1,0C61.1,28.5,61.1,28.2,61,27.8C61.1,27.7,61,27.7,61,27.8L61,27.8
				z"/>
			<path class="st1" d="M62.7,27.8c0,0.4,0,0.8,0,1.2c0,0,0.1,0,0.1,0C62.8,28.6,62.8,28.2,62.7,27.8C62.8,27.8,62.7,27.8,62.7,27.8
				L62.7,27.8z"/>
			<path class="st1" d="M64.5,27.8c0,0.4,0,0.8,0,1.2c0,0,0.1,0,0.1,0C64.6,28.6,64.6,28.2,64.5,27.8C64.6,27.8,64.5,27.8,64.5,27.8
				L64.5,27.8z"/>
			<path class="st1" d="M66.2,27.9c0,0.4,0,0.8,0,1.2c0,0,0.1,0,0.1,0C66.2,28.7,66.2,28.3,66.2,27.9C66.2,27.9,66.2,27.9,66.2,27.9
				L66.2,27.9z"/>
			<path class="st1" d="M55.7,27.8c0,0.4,0,0.9,0,1.3c0,0,0.1,0,0.1,0C55.7,28.7,55.7,28.2,55.7,27.8C55.7,27.8,55.7,27.8,55.7,27.8
				L55.7,27.8z"/>
		</g>
	</g>
</g>
</svg>
